<svg width="38" height="60" viewBox="0 0 38 60" fill="none" xmlns="http://www.w3.org/2000/svg">
<g clip-path="url(#clip0_355_252)">
<path d="M35.3897 18.3468H29.0187C27.4098 18.3468 26.6376 19.06 26.6376 20.6159V40.1621L13.6704 20.0648C12.7694 18.671 12.1902 18.4117 10.3883 18.3468H4.11389C2.4407 18.3468 1.66846 19.06 1.66846 20.6159V57.731C1.66846 59.2869 2.4407 60 4.11389 60H10.4849C12.1581 60 12.9303 59.2869 12.9303 57.731V38.282L25.9619 58.282C26.9272 59.7407 27.442 60 29.2439 60H35.4218C37.095 60 37.8673 59.2869 37.8673 57.731V20.6159C37.8029 19.06 37.0307 18.3468 35.3897 18.3468Z" fill="#293136"/>
<path d="M7.29968 14.1329C11.1737 14.1329 14.3142 10.9691 14.3142 7.06645C14.3142 3.16376 11.1737 0 7.29968 0C3.42567 0 0.285156 3.16376 0.285156 7.06645C0.285156 10.9691 3.42567 14.1329 7.29968 14.1329Z" fill="#293136"/>
</g>
<defs>
<clipPath id="clip0_355_252">
<rect width="37.5824" height="60" fill="white" transform="translate(0.285156)"/>
</clipPath>
</defs>
</svg>
